<svg xmlns="http://www.w3.org/2000/svg" width="1100" height="190" viewBox="0 0 1100 190" role="img" aria-labelledby="footer-rabbit-title footer-rabbit-description">
  <title id="footer-rabbit-title">당근을 찾아 굴 밖으로 나온 탐험가 토끼</title>
  <desc id="footer-rabbit-description">달토끼가 뜬 밤, 노트를 넣은 가방을 멘 토끼가 토끼굴 옆 등불에서 출발해 탐험·낙서·목소리 표지판을 지나 졸고 있던 당근에게 깡충깡충 다가간다. 놀란 당근이 흙 속에 숨었다가 윙크하며 튀어나오고, 둘이 볼을 비비면 하트가 떠오른다. 하늘에는 별이 반짝이고 종이비행기 편지가 지나간다. 16초 애니메이션</desc>
  <defs>
    <linearGradient id="footer-carrot-skin" x1="0" y1="0" x2="1" y2="1">
      <stop offset="0" stop-color="#f39a52"/><stop offset="1" stop-color="#f39a52"/>
    </linearGradient>
    <radialGradient id="rb-coat" cx="42%" cy="32%" r="80%">
      <stop offset="0" stop-color="#ffffff"/><stop offset=".7" stop-color="#f7f3ea"/><stop offset="1" stop-color="#ebe3d3"/>
    </radialGradient>
    <clipPath id="ground-clip"><rect x="880" y="0" width="180" height="169.5"/></clipPath>
  
    <linearGradient id="land-fade" x1="0" y1="0" x2="1" y2="0"><stop offset="0" stop-color="#2c2e3a" stop-opacity="0"/><stop offset=".07" stop-color="#2c2e3a"/><stop offset=".93" stop-color="#2c2e3a"/><stop offset="1" stop-color="#2c2e3a" stop-opacity="0"/></linearGradient>
    <radialGradient id="ff-glow"><stop offset="0" stop-color="#ffe9a3" stop-opacity=".75"/><stop offset="1" stop-color="#ffe9a3" stop-opacity="0"/></radialGradient>
    <radialGradient id="lantern-glow"><stop offset="0" stop-color="#ffc56b" stop-opacity=".45"/><stop offset="1" stop-color="#ffc56b" stop-opacity="0"/></radialGradient>
    <linearGradient id="shoot-tail" x1="0" y1="0" x2="1" y2="0"><stop offset="0" stop-color="#fff6dc" stop-opacity="0"/><stop offset="1" stop-color="#fff6dc"/></linearGradient>
  </defs>
  <style>
    .scene{animation:scene-loop 16s ease-in-out infinite}
    .rabbit-position{animation:rabbit-journey 16s ease-in-out infinite}
    .rabbit-body{transform-box:fill-box;transform-origin:center bottom;animation:rabbit-squash 16s ease-in-out infinite}
    .rabbit-shadow{transform-box:fill-box;transform-origin:center;animation:shadow-hop 16s ease-in-out infinite}
    .rabbit-head{transform-box:fill-box;transform-origin:30% 85%;animation:head-mood 16s ease-in-out infinite}
    .rabbit-ear-back,.rabbit-ear-front{transform-box:fill-box;transform-origin:center bottom}
    .rabbit-ear-back{animation:ear-back 16s ease-in-out infinite}
    .rabbit-ear-front{animation:ear-front 16s ease-in-out infinite}
    .rabbit-eye-blink{transform-box:fill-box;transform-origin:center;animation:rabbit-blink 16s linear infinite}
    .rabbit-eyes-open{animation:eyes-open 16s linear infinite}
    .rabbit-eyes-happy{opacity:0;animation:eyes-happy 16s linear infinite}
    .rabbit-nose{transform-box:fill-box;transform-origin:center;animation:nose-sniff 16s ease-in-out infinite}
    .rabbit-whiskers{transform-box:fill-box;transform-origin:left center;animation:whisker-quiver 16s ease-in-out infinite}
    .rabbit-tail{transform-box:fill-box;transform-origin:right center;animation:tail-wiggle 16s ease-in-out infinite}
    .rabbit-front-paw{transform-box:fill-box;transform-origin:center;animation:front-paw 16s ease-in-out infinite}
    .rabbit-question-inner{transform-box:fill-box;transform-origin:center bottom;opacity:0;animation:question-pop 16s ease-out infinite}
    .carrot{transform-box:fill-box;transform-origin:center bottom;animation:carrot-play 16s ease-in-out infinite}
    .carrot-leaves{transform-box:fill-box;transform-origin:center bottom;animation:leaves-flutter 16s ease-in-out infinite}
    .carrot-sleep-eyes{animation:carrot-sleep 16s linear infinite}
    .carrot-eyes-open{opacity:0;animation:carrot-awake 16s linear infinite}
    .carrot-pupils{animation:carrot-look 16s ease-in-out infinite}
    .carrot-eye-right{animation:carrot-eye-right 16s linear infinite}
    .carrot-wink{opacity:0;animation:carrot-wink 16s linear infinite}
    .carrot-blush{animation:carrot-blush 16s ease-in-out infinite}
    .zz-a,.zz-b{opacity:0}
    .zz-a{animation:zz-a 16s ease-out infinite}
    .zz-b{animation:zz-b 16s ease-out infinite}
    .dust{transform-box:fill-box;transform-origin:center bottom;opacity:0;animation:dust-puff 16s ease-out infinite}
    .sparkle{transform-box:fill-box;transform-origin:center;opacity:0;animation:sparkle-pop 16s ease-out infinite}
    .heart-a,.heart-b{transform-box:fill-box;transform-origin:center;opacity:0}
    .heart-a{animation:heart-a 16s ease-out infinite}
    .heart-b{animation:heart-b 16s ease-out infinite}
    @keyframes scene-loop{0%,93%{opacity:1}95%,99%{opacity:0}100%{opacity:1}}
    @keyframes rabbit-journey{
      0%,13%{transform:translate(0,0)}18%{transform:translate(85px,-34px)}22%,23%{transform:translate(170px,0)}
      27%{transform:translate(255px,-30px)}31%,32%{transform:translate(340px,0)}36%{transform:translate(425px,-26px)}
      40%,41%{transform:translate(510px,0)}45%{transform:translate(600px,-22px)}49%,62%{transform:translate(690px,0)}
      65%{transform:translate(690px,-20px)}68%,73%{transform:translate(690px,0)}76%{transform:translate(690px,-12px)}
      79%,95.9%{transform:translate(690px,0)}96%,100%{transform:translate(0,0)}
    }
    @keyframes rabbit-squash{0%,11%,20%,29%,38%,47%,52%,62%,70%,74%,80%,100%{transform:scale(1)}13%,22.5%,31.5%,40.5%,49.5%{transform:scale(1.09,.9)}16%,25.5%,34.5%,43.5%{transform:scale(.93,1.09)}64%{transform:scale(.9,1.13)}77%{transform:scale(.94,1.07)}}
    @keyframes shadow-hop{0%,13%,22%,23%,31%,32%,40%,41%,49%,62%,68%,73%,79%,100%{transform:scale(1);opacity:.45}18%,27%,36%,45%{transform:scale(.6);opacity:.2}65%{transform:scale(.7);opacity:.24}76%{transform:scale(.8);opacity:.3}}
    @keyframes head-mood{0%,9%,13%,50%,62%,74%,79%,93%,100%{transform:none}3%{transform:rotate(-7deg)}6.5%{transform:rotate(6deg)}53%,57%{transform:rotate(7deg) translate(2px,1px)}55%,59%{transform:rotate(4deg)}66%,72%{transform:rotate(-14deg)}82%,88%{transform:rotate(9deg) translate(5px,2px)}85%,91%{transform:rotate(6deg) translate(4px,1px)}}
    @keyframes ear-front{0%,3%,6%,12%,50%,62%,72%,80%,92%,100%{transform:rotate(0)}4.5%{transform:rotate(12deg)}16%,25.5%,34.5%,43.5%{transform:rotate(-22deg)}20%,29%,38%,47%{transform:rotate(5deg)}65%,69%{transform:rotate(-4deg) scaleY(1.14)}83%,89%{transform:rotate(12deg)}86%{transform:rotate(-6deg)}}
    @keyframes ear-back{0%,5%,9%,12%,50%,62%,72%,80%,92%,100%{transform:rotate(0)}7%{transform:rotate(-15deg)}16%,25.5%,34.5%,43.5%{transform:rotate(-28deg)}20%,29%,38%,47%{transform:rotate(3deg)}65%,69%{transform:rotate(-8deg) scaleY(1.12)}84%,90%{transform:rotate(-13deg)}87%{transform:rotate(5deg)}}
    @keyframes rabbit-blink{0%,10%,11.2%,47%,48.2%,72.4%,73.6%,100%{transform:scaleY(1)}10.6%,47.6%,73%{transform:scaleY(.1)}}
    @keyframes eyes-open{0%,79.9%,92.1%,100%{opacity:1}80%,92%{opacity:0}}
    @keyframes eyes-happy{0%,79.9%,92.1%,100%{opacity:0}80%,92%{opacity:1}}
    @keyframes nose-sniff{0%,2%,4.5%,50%,61%,100%{transform:none}3%,52%,54.5%,57%,59.5%{transform:translateY(-.8px) scale(1.25)}53.2%,55.8%,58.3%{transform:scale(.9)}}
    @keyframes whisker-quiver{0%,50%,61%,100%{transform:none}52%,55%,58%{transform:rotate(-7deg)}53.5%,56.5%,59.5%{transform:rotate(5deg)}}
    @keyframes tail-wiggle{0%,12%,50%,80%,93%,100%{transform:rotate(0)}16%,25.5%,34.5%,43.5%{transform:rotate(-16deg) scale(1.08)}20%,29%,38%,47%{transform:rotate(8deg)}82%,86%,90%{transform:rotate(-20deg) scale(1.12)}84%,88%,92%{transform:rotate(14deg)}}
    @keyframes front-paw{0%,13%,49%,100%{transform:none}16%,25.5%,34.5%,43.5%{transform:translate(4px,-7px) rotate(-18deg)}20%,29%,38%,47%{transform:translate(-2px,1px)}}
    @keyframes question-pop{0%,62.5%,73.5%,100%{opacity:0;transform:translateY(8px) scale(.4)}64.5%,71.5%{opacity:1;transform:translateY(0) scale(1)}67.5%{opacity:1;transform:translateY(-4px) rotate(10deg) scale(1.08)}}
    @keyframes carrot-play{0%,50%,56%,78%,80%,93%,100%{transform:none}12%,36%{transform:rotate(-3deg)}24%,44%{transform:rotate(3deg)}58%{transform:translateY(-7px) scale(1.06,.94)}61%,72%{transform:translateY(86px)}74%{transform:translateY(-24px) rotate(-7deg)}76%{transform:translateY(3px) scale(1.08,.92)}83%,89%{transform:translateY(-7px) rotate(5deg)}86%,92%{transform:rotate(-4deg)}}
    @keyframes leaves-flutter{0%,50%,93%,100%{transform:none}12%,36%{transform:rotate(4deg)}24%,44%{transform:rotate(-4deg)}58%{transform:rotate(-10deg)}64%,68%{transform:rotate(9deg)}66%,70%{transform:rotate(-9deg)}74%{transform:rotate(16deg) scaleY(1.1)}77%{transform:rotate(-12deg)}80%{transform:rotate(6deg)}83%,89%{transform:rotate(-8deg)}86%,92%{transform:rotate(7deg)}}
    @keyframes carrot-sleep{0%,51.4%,95%,100%{opacity:1}51.5%,94.9%{opacity:0}}
    @keyframes carrot-awake{0%,51.4%,95%,100%{opacity:0}51.5%,94.9%{opacity:1}}
    @keyframes carrot-look{0%,51.5%,58%,100%{transform:none}53%,57%{transform:translateX(-1.8px)}55%{transform:translate(-1.8px,-.8px)}}
    @keyframes carrot-eye-right{0%,76.9%,89.1%,100%{opacity:1}77%,89%{opacity:0}}
    @keyframes carrot-wink{0%,76.9%,89.1%,100%{opacity:0}77%,89%{opacity:1}}
    @keyframes carrot-blush{0%,79%,93%,100%{opacity:.45}82%,90%{opacity:.85}}
    @keyframes zz-a{0%,100%{opacity:0;transform:translate(0,4px) scale(.7)}5%,21%,37%{opacity:.85;transform:translate(0,0) scale(1)}13%,29%,45%{opacity:0;transform:translate(7px,-14px) scale(1.1)}13.1%,29.1%{opacity:0;transform:translate(0,4px) scale(.7)}45.1%{opacity:0;transform:translate(0,4px) scale(.7)}}
    @keyframes zz-b{0%,8%,100%{opacity:0;transform:translate(0,4px) scale(.7)}13%,29%,45%{opacity:.7;transform:translate(0,0) scale(1)}21%,37%,50%{opacity:0;transform:translate(6px,-12px) scale(1.1)}21.1%,37.1%,50.1%{opacity:0;transform:translate(0,4px) scale(.7)}}
    @keyframes dust-puff{0%,60%,64%,73%,78%,100%{opacity:0;transform:scale(.4)}61.5%,74.5%{opacity:.6;transform:scale(1.1)}}
    @keyframes sparkle-pop{0%,73.5%,81%,100%{opacity:0;transform:scale(.2) rotate(0)}75.5%{opacity:1;transform:scale(1.15) rotate(20deg)}78%{opacity:.7;transform:scale(.8) rotate(45deg)}}
    @keyframes heart-a{0%,79%,93%,100%{opacity:0;transform:translateY(8px) scale(.4)}82%{opacity:1;transform:translateY(0) scale(1.1)}84%{transform:translateY(-3px) scale(.95)}91%{opacity:0;transform:translateY(-28px) scale(.9)}}
    @keyframes heart-b{0%,83%,94%,100%{opacity:0;transform:translateY(8px) scale(.4)}86%{opacity:.9;transform:translateY(0) scale(1)}93%{opacity:0;transform:translateY(-24px) scale(.8)}}
    @media (prefers-reduced-motion: reduce){.scene,.rabbit-position,.rabbit-body,.rabbit-shadow,.rabbit-head,.rabbit-ear-back,.rabbit-ear-front,.rabbit-eye-blink,.rabbit-eyes-open,.rabbit-eyes-happy,.rabbit-nose,.rabbit-whiskers,.rabbit-tail,.rabbit-front-paw,.rabbit-question-inner,.carrot,.carrot-leaves,.carrot-sleep-eyes,.carrot-eyes-open,.carrot-pupils,.carrot-eye-right,.carrot-wink,.carrot-blush,.zz-a,.zz-b,.dust,.sparkle,.heart-a,.heart-b{animation:none!important}.scene{opacity:1}.rabbit-position{transform:translate(690px,0)}.rabbit-eyelid,.rabbit-eye-blink{transform:scaleY(1)}.rabbit-eyelid{transform:scaleY(0)}.rabbit-eyes-open{opacity:1}.rabbit-eyes-happy{opacity:0}.rabbit-question-inner{opacity:0}.carrot-sleep-eyes{opacity:0}.carrot-eyes-open{opacity:1}.carrot-eye-right{opacity:0}.carrot-wink{opacity:1}.carrot-blush{opacity:.8}.zz-a,.zz-b,.dust,.sparkle,.heart-b{opacity:0}.heart-a{opacity:.95;transform:none}}
  </style>
  <style>
    .sky-star{transform-box:fill-box;transform-origin:center;animation:twinkle 3.6s ease-in-out infinite}
    .moon{animation:moon-bob 7s ease-in-out infinite}
    .shooting{opacity:0;animation:shooting 16s linear infinite}
    .paper-plane-track{animation:plane-fly 20s linear infinite}
    .paper-plane{animation:plane-bob 2.6s ease-in-out infinite}
    .firefly{animation:firefly 6s ease-in-out infinite}
    .lantern-glow{transform-box:fill-box;transform-origin:center;animation:lantern 2.8s ease-in-out infinite}
    .lantern-flame{animation:flame 1.4s ease-in-out infinite}
    .sign-board{transform-box:fill-box;transform-origin:0% 50%;animation:sign-sway 5s ease-in-out infinite}
    @keyframes twinkle{0%,100%{opacity:.35;transform:scale(.7)}50%{opacity:1;transform:scale(1.15)}}
    @keyframes moon-bob{0%,100%{transform:translateY(0)}50%{transform:translateY(-3px)}}
    @keyframes shooting{0%,27%{opacity:0;transform:translate(330px,8px)}29%{opacity:1}34%{opacity:0;transform:translate(500px,62px)}100%{opacity:0;transform:translate(500px,62px)}}
    @keyframes plane-fly{0%{transform:translate(-80px,58px)}45%{transform:translate(560px,30px)}80%{transform:translate(1180px,46px)}100%{transform:translate(1180px,46px)}}
    @keyframes plane-bob{0%,100%{transform:translateY(0) rotate(-4deg)}50%{transform:translateY(-6px) rotate(5deg)}}
    @keyframes firefly{0%,100%{opacity:.25;transform:translate(0,0)}35%{opacity:1;transform:translate(9px,-10px)}70%{opacity:.55;transform:translate(-7px,-4px)}}
    @keyframes lantern{0%,100%{opacity:.8;transform:scale(1)}45%{opacity:1;transform:scale(1.12)}70%{opacity:.7;transform:scale(.95)}}
    @keyframes flame{0%,100%{opacity:.85}50%{opacity:1}}
    @keyframes sign-sway{0%,100%{transform:rotate(0)}50%{transform:rotate(-2.5deg)}}
    @media (prefers-reduced-motion: reduce){.sky-star,.moon,.shooting,.paper-plane-track,.paper-plane,.firefly,.lantern-glow,.lantern-flame,.sign-board{animation:none!important}.shooting{opacity:0}.paper-plane-track{transform:translate(470px,34px)}.firefly{opacity:.7}}
  </style>
  <style>
    .sun-group,.sign-hi path,.tap-pop{opacity:0}
    .sun-disc{fill:#ffd27a}.sun-halo{fill:#ffd27a}.sun-rays{stroke:#ffd27a}
    .prop,.news-flag{display:none}
    .sign-hi path{fill:none;stroke:#f39a52;stroke-width:2.2;stroke-linejoin:round}
    .prop-hammer{transform-box:fill-box;transform-origin:100% 100%;animation:hammer-tap 1.1s ease-in-out infinite}
    .prop-scope{transform-box:fill-box;transform-origin:90% 90%;animation:scope-look 3.2s ease-in-out infinite}
    .prop-pencil{transform-box:fill-box;transform-origin:100% 100%;animation:pencil-wiggle .9s ease-in-out infinite}
    .prop-scribble{stroke-dasharray:1;stroke-dashoffset:1;animation:scribble 2.4s ease-in-out infinite}.prop-scribble--b{animation-delay:-.8s}
    .prop-book{transform-box:fill-box;transform-origin:center bottom;animation:book-float 2.8s ease-in-out infinite}
    .hat-star{transform-box:fill-box;transform-origin:center;animation:hat-star 2.2s ease-in-out infinite}
    .note{animation:note-float 2.4s ease-in-out infinite}.note--b{animation-delay:-1.2s}
    .news-flag__cloth{transform-box:fill-box;transform-origin:0% 50%;animation:flag-wave 1.6s ease-in-out infinite}
    .cloud--a{animation:cloud-drift 18s ease-in-out infinite}.cloud--b{animation:cloud-drift 22s ease-in-out infinite reverse}
    .carrot-hit{cursor:pointer}
    @keyframes hammer-tap{0%,55%,100%{transform:rotate(0)}70%{transform:rotate(-22deg)}85%{transform:rotate(8deg)}}
    @keyframes scope-look{0%,100%{transform:rotate(0)}50%{transform:rotate(6deg)}}
    @keyframes pencil-wiggle{0%,100%{transform:rotate(0)}50%{transform:rotate(-12deg)}}
    @keyframes scribble{0%{stroke-dashoffset:1}60%,85%{stroke-dashoffset:0}100%{stroke-dashoffset:-1}}
    @keyframes book-float{0%,100%{transform:translateY(0)}50%{transform:translateY(-4px)}}
    @keyframes hat-star{0%,100%{transform:scale(1) rotate(0)}50%{transform:scale(1.35) rotate(20deg)}}
    @keyframes note-float{0%{opacity:0;transform:translate(0,4px)}30%{opacity:1}100%{opacity:0;transform:translate(6px,-16px)}}
    @keyframes flag-wave{0%,100%{transform:skewY(0) scaleX(1)}50%{transform:skewY(-6deg) scaleX(.94)}}
    @keyframes cloud-drift{0%,100%{transform:translateX(0)}50%{transform:translateX(26px)}}
    @media (prefers-reduced-motion: reduce){.prop-hammer,.prop-scope,.prop-pencil,.prop-scribble,.prop-book,.hat-star,.note,.news-flag__cloth,.cloud--a,.cloud--b{animation:none!important}.prop-scribble{stroke-dashoffset:0}.note{opacity:1}}
  </style>
  <g class="sky" aria-hidden="true">
    <g class="sun-group">
      <circle class="sun-halo" cx="742" cy="40" r="36" opacity=".12"/>
      <circle class="sun-disc" cx="742" cy="40" r="20"/>
      <g class="sun-rays" stroke-width="2" stroke-linecap="round"><path d="M742 10v-5M742 70v5M712 40h-5M772 40h5M721 19l-4-4M763 61l4 4M763 19l4-4M721 61l-4 4"/></g>
      <g fill="#44475a"><path class="cloud cloud--a" d="M640 36c0-7 6-12 13-12 4-6 10-9 17-8 7 1 12 6 13 12 6 0 10 4 10 9H640Z"/><path class="cloud cloud--b" d="M860 58c0-5 5-9 10-9 3-5 8-7 13-6 6 1 9 5 10 9 4 0 8 3 8 7h-41Z"/></g>
    </g>
    <g class="stars" fill="#f7f3ea" opacity=".8"><g transform="translate(60 22)"><path class="sky-star" style="animation-delay:-0.4s" d="M0 -3.84Q0.96 -0.96 3.84 0Q0.96 0.96 0 3.84Q-0.96 0.96 -3.84 0Q-0.96 -0.96 0 -3.84Z"/></g><g transform="translate(170 44)"><path class="sky-star" style="animation-delay:-2.1s" d="M0 -2.88Q0.72 -0.72 2.88 0Q0.72 0.72 0 2.88Q-0.72 0.72 -2.88 0Q-0.72 -0.72 0 -2.88Z"/></g><g transform="translate(290 16)"><path class="sky-star" style="animation-delay:-1.2s" d="M0 -3.36Q0.84 -0.84 3.36 0Q0.84 0.84 0 3.36Q-0.84 0.84 -3.36 0Q-0.84 -0.84 0 -3.36Z"/></g><g transform="translate(410 52)"><path class="sky-star" style="animation-delay:-3s" d="M0 -2.64Q0.66 -0.66 2.64 0Q0.66 0.66 0 2.64Q-0.66 0.66 -2.64 0Q-0.66 -0.66 0 -2.64Z"/></g><g transform="translate(470 24)"><path class="sky-star" style="animation-delay:-0.9s" d="M0 -4.32Q1.08 -1.08 4.32 0Q1.08 1.08 0 4.32Q-1.08 1.08 -4.32 0Q-1.08 -1.08 0 -4.32Z"/></g><g transform="translate(560 40)"><path class="sky-star" style="animation-delay:-2.6s" d="M0 -2.88Q0.72 -0.72 2.88 0Q0.72 0.72 0 2.88Q-0.72 0.72 -2.88 0Q-0.72 -0.72 0 -2.88Z"/></g><g transform="translate(640 14)"><path class="sky-star" style="animation-delay:-1.7s" d="M0 -3.6Q0.9 -0.9 3.6 0Q0.9 0.9 0 3.6Q-0.9 0.9 -3.6 0Q-0.9 -0.9 0 -3.6Z"/></g><g transform="translate(830 26)"><path class="sky-star" style="animation-delay:-0.2s" d="M0 -3.12Q0.78 -0.78 3.12 0Q0.78 0.78 0 3.12Q-0.78 0.78 -3.12 0Q-0.78 -0.78 0 -3.12Z"/></g><g transform="translate(900 56)"><path class="sky-star" style="animation-delay:-2.9s" d="M0 -2.64Q0.66 -0.66 2.64 0Q0.66 0.66 0 2.64Q-0.66 0.66 -2.64 0Q-0.66 -0.66 0 -2.64Z"/></g><g transform="translate(980 18)"><path class="sky-star" style="animation-delay:-1.4s" d="M0 -4.08Q1.02 -1.02 4.08 0Q1.02 1.02 0 4.08Q-1.02 1.02 -4.08 0Q-1.02 -1.02 0 -4.08Z"/></g><g transform="translate(1060 44)"><path class="sky-star" style="animation-delay:-2.2s" d="M0 -2.88Q0.72 -0.72 2.88 0Q0.72 0.72 0 2.88Q-0.72 0.72 -2.88 0Q-0.72 -0.72 0 -2.88Z"/></g><g transform="translate(1080 12)"><path class="sky-star" style="animation-delay:-0.7s" d="M0 -2.4Q0.6 -0.6 2.4 0Q0.6 0.6 0 2.4Q-0.6 0.6 -2.4 0Q-0.6 -0.6 0 -2.4Z"/></g></g>
    <g transform="translate(742 40)"><g class="moon">
      <circle r="34" fill="#f7f3ea" opacity=".05"/><circle r="25" fill="#f7f3ea" opacity=".07"/>
      <circle r="17" fill="#f7f3ea"/>
      <circle cx="-8" cy="-7" r="3.2" fill="#ebe3d3"/><circle cx="9" cy="8" r="2.2" fill="#ebe3d3"/>
      <g class="moon-rabbit">
        <ellipse cx="-2.6" cy="-4.6" rx="1.7" ry="4.6" fill="#ebe3d3" transform="rotate(-12 -2.6 -4.6)"/>
        <ellipse cx="2.6" cy="-4.8" rx="1.7" ry="4.8" fill="#ebe3d3" transform="rotate(10 2.6 -4.8)"/>
        <ellipse cx="0" cy="8.6" rx="5" ry="3.8" fill="#ebe3d3"/>
        <circle cx="0" cy="2.6" r="5.2" fill="#ebe3d3"/>
        <circle cx="-1.9" cy="2.6" r=".9" fill="#1c2a3a"/><circle cx="1.9" cy="2.6" r=".9" fill="#1c2a3a"/>
        <ellipse cx="-3.4" cy="4.4" rx="1.1" ry=".7" fill="#ff9fb2"/><ellipse cx="3.4" cy="4.4" rx="1.1" ry=".7" fill="#ff9fb2"/>
      </g>
    </g></g>
    <g class="shooting"><path d="M0 0l-46 15" stroke="url(#shoot-tail)" stroke-width="1.8" stroke-linecap="round"/><circle r="1.8" fill="#fff6dc"/></g>
    <g class="paper-plane-track"><g class="paper-plane">
      <path d="M-34 6c-10 2-20-2-30 1" fill="none" stroke="#a6abc0" stroke-width="1" stroke-dasharray="2 4" stroke-linecap="round" opacity=".7"/>
      <path d="M0 0l22 7-22 7 5-7Z" fill="#f6f7fb"/><path d="M0 0l22 7-17 0Z" fill="#bfc3d3"/><path d="M5 7l3 6 14-6" fill="#b0b5c9"/>
      <rect x="-2" y="5" width="4" height="4" rx="1" fill="#f39a52" transform="rotate(12 0 7)"/>
    </g></g>
  </g>
  <g class="land" aria-hidden="true">
    <path d="M0 190V158c70-14 150-16 230-6s150 4 230-4 170-10 260 2 160 6 230-2 110-4 150 2V190Z" fill="url(#land-fade)"/>
    <g transform="translate(78 169)">
      <path d="M-48 0C-46-26-26-40 0-40S46-26 48 0Z" fill="#3d4158"/>
      <path d="M-40 0C-38-20-22-31 0-31S38-20 40 0" fill="none" stroke="#00c08b" stroke-width="2" stroke-linecap="round" opacity=".55"/>
      <path d="M-21 0C-21-12-12-19 0-19S21-12 21 0Z" fill="#1f2130"/>
      <ellipse cx="-24" cy="-24" rx="4" ry="2.6" fill="#4a4f69"/><ellipse cx="22" cy="-29" rx="3" ry="2" fill="#4a4f69"/>
      <g transform="translate(-32 -38)"><ellipse cx="-3" cy="-4" rx="3" ry="5" fill="#00c08b" transform="rotate(-24 -3 -4)"/><ellipse cx="3" cy="-5" rx="3" ry="5.4" fill="#00c08b" transform="rotate(20 3 -5)"/></g>
      <g transform="translate(36 0)">
        <rect x="-1.8" y="-40" width="3.6" height="40" rx="1.8" fill="#6272a5"/>
        <path d="M0-38c6 0 10 2 12 6" fill="none" stroke="#6272a5" stroke-width="3" stroke-linecap="round"/>
        <g transform="translate(12 -28)">
          <circle class="lantern-glow" r="15" fill="url(#lantern-glow)"/>
          <rect x="-5.5" y="-6" width="11" height="12" rx="4" fill="#f6c07a"/>
          <rect x="-6.5" y="-7.5" width="13" height="3.4" rx="1.7" fill="#f39a52"/>
          <rect x="-6.5" y="4.6" width="13" height="3.4" rx="1.7" fill="#f39a52"/>
          <circle class="lantern-flame" cx="0" cy="0" r="2" fill="#fff6dc"/>
        </g>
      </g>
    </g>
    <g transform="translate(598 169)">
      <rect x="-2.6" y="-66" width="5.2" height="66" rx="2.6" fill="#6272a5"/>
      <g class="sign-board">
        <path d="M10 -62H42Q45.15 -62 51 -54Q45.15 -46 42 -46H10a8 8 0 0 1 0 -16Z" fill="#f7f3ea"/>
        <g transform="translate(20 -54)"><circle r="5" fill="none" stroke="#1c2a3a" stroke-width="1.6"/><path d="M0-3.4 1.4 0 0 3.4-1.4 0Z" fill="#f39a52"/></g>
      </g>
      <path d="M-10 -42H-40Q-43.15 -42 -49 -34Q-43.15 -26 -40 -26H-10a8 8 0 0 0 0 -16Z" fill="#ebe3d3"/>
      <g transform="translate(-21 -34)" fill="none" stroke="#1c2a3a" stroke-width="1.6" stroke-linecap="round" stroke-linejoin="round"><path d="M-5 4l7-7 2 2-7 7-3 1Z"/><path d="M0-1.5l2 2"/></g>
      <path d="M9 -22H36Q38.8 -22 44 -15Q38.8 -8 36 -8H9a7 7 0 0 1 0 -14Z" fill="#f7f3ea"/>
      <g transform="translate(18 -15)" fill="none" stroke="#1c2a3a" stroke-width="1.6" stroke-linecap="round"><rect x="-2.4" y="-5" width="4.8" height="7" rx="2.4"/><path d="M-4.2 0a4.2 4.2 0 0 0 8.4 0M0 4.2v2"/></g>
      <g class="sign-hi"><path class="sign-hi--explore" d="M10 -64H42Q45.5 -64 52 -54Q45.5 -44 42 -44H10a10 10 0 0 1 0 -20Z"/><path class="sign-hi--make" d="M-10 -44H-42Q-45.5 -44 -52 -34Q-45.5 -24 -42 -24H-10a10 10 0 0 0 0 -20Z"/><path class="sign-hi--voices" d="M9 -24H36Q39.5 -24 46 -15Q39.5 -6 36 -6H9a9 9 0 0 1 0 -18Z"/></g>
      <g transform="translate(0 -68)"><ellipse cx="-3" cy="-4" rx="3" ry="5" fill="#00c08b" transform="rotate(-24 -3 -4)"/><ellipse cx="3" cy="-5" rx="3" ry="5.4" fill="#00c08b" transform="rotate(20 3 -5)"/></g>
    </g>
    <g transform="translate(330 169)"><path d="M0 0v-9" stroke="#00c08b" stroke-width="1.4"/><g fill="#f7f3ea"><circle cx="0" cy="-13" r="2.6"/><circle cx="3.6" cy="-10.4" r="2.6"/><circle cx="-3.6" cy="-10.4" r="2.6"/><circle cx="2.2" cy="-6.6" r="2.4"/><circle cx="-2.2" cy="-6.6" r="2.4"/></g><circle cx="0" cy="-9.6" r="2" fill="#f39a52"/></g>
    <g transform="translate(712 169)"><path d="M0 0v-7" stroke="#00c08b" stroke-width="1.3"/><g fill="#f2b6b0"><circle cx="0" cy="-10.4" r="2.2"/><circle cx="3" cy="-8.2" r="2.2"/><circle cx="-3" cy="-8.2" r="2.2"/><circle cx="1.8" cy="-5" r="2"/><circle cx="-1.8" cy="-5" r="2"/></g><circle cx="0" cy="-7.6" r="1.6" fill="#fff3c4"/></g>
    <g transform="translate(1064 169)"><path d="M-3 0c0-5 1-8 3-8s3 3 3 8Z" fill="#f7f3ea"/><path d="M-9-7c0-7 4-11 9-11s9 4 9 11Z" fill="#ff7a45"/><g fill="#f7f3ea"><circle cx="-4" cy="-12" r="1.5"/><circle cx="3" cy="-14" r="1.2"/><circle cx="5" cy="-9.6" r="1"/></g></g>
    <g fill="#4c5066"><ellipse cx="420" cy="170" rx="5" ry="2.6"/><ellipse cx="428" cy="171" rx="3" ry="1.8"/><ellipse cx="780" cy="170" rx="4" ry="2.2"/></g>
  </g>
  <g class="fireflies" aria-hidden="true"><g transform="translate(330 128)"><g class="firefly" style="animation-delay:-1s"><circle r="7" fill="url(#ff-glow)"/><circle r="1.7" fill="#fff3c4"/></g></g><g transform="translate(505 112)"><g class="firefly" style="animation-delay:-3.4s"><circle r="7" fill="url(#ff-glow)"/><circle r="1.7" fill="#fff3c4"/></g></g><g transform="translate(760 140)"><g class="firefly" style="animation-delay:-2.2s"><circle r="7" fill="url(#ff-glow)"/><circle r="1.7" fill="#fff3c4"/></g></g><g transform="translate(1072 120)"><g class="firefly" style="animation-delay:-4.6s"><circle r="7" fill="url(#ff-glow)"/><circle r="1.7" fill="#fff3c4"/></g></g><g transform="translate(250 150)"><g class="firefly" style="animation-delay:-5.2s"><circle r="7" fill="url(#ff-glow)"/><circle r="1.7" fill="#fff3c4"/></g></g></g>
  <g class="scene">
    <path d="M24 169H1076" fill="none" stroke="#5d6280" stroke-width="1" stroke-dasharray="1 14" stroke-linecap="round" opacity=".5"/>
    <path d="M60 175c92-4 170-3 250 0m50 0c168-5 300-4 444 0m48 0c58-2 112-2 164 0" fill="none" stroke="#44475a" stroke-width="1.2" opacity=".55"/>
    <g fill="none" stroke="#00c08b" stroke-width="1.6" stroke-linecap="round" opacity=".7">
      <path d="M96 169c-1-6 0-10 3-13M101 169c0-5 2-8 5-10M92 169c-2-4-4-6-7-7"/>
      <path d="M470 169c-1-5 0-9 2-11M475 169c1-4 3-7 6-8"/>
      <path d="M1040 169c-1-6 0-10 3-13M1045 169c0-5 2-8 5-10M1036 169c-2-4-4-6-7-7"/>
      <path d="M902 169c0-5 2-8 4-10M897 169c-1-4-3-6-6-7"/>
    </g>
    <g fill="#b7bccf" opacity=".55"><circle cx="1051" cy="155" r="2.2"/><circle cx="104" cy="158" r="1.8"/></g>
    <g class="carrot-clip" clip-path="url(#ground-clip)">
      <g class="carrot-anchor" transform="translate(965 103)">
        <g class="carrot">
          <g class="carrot-leaves"><ellipse cx="-12.6" cy="-25.8" rx="7.5" ry="13.8" fill="#00c08b" transform="rotate(-28 -12.6 -25.8)"/><ellipse cx="0" cy="-30.6" rx="8.1" ry="15" fill="#00c08b"/><ellipse cx="12.6" cy="-25.8" rx="7.5" ry="13.8" fill="#00c08b" transform="rotate(28 12.6 -25.8)"/><ellipse cx="2.6" cy="-30" rx="3" ry="10" fill="#00a979" opacity=".55"/></g>
          <path d="M-22.5 -6C-22.5 -19.5 22.5 -19.5 22.5 -6C22.5 18 9 45 0 63C-9 45 -22.5 18 -22.5 -6Z" fill="#ff7a45"/><path d="M10.8 -13.8C19.8 -12 22.5 -8.4 22.5 -6C22.5 18 9 45 0 63C6.6 39 11.4 15 10.8 -13.8Z" fill="#ec6634"/>
          <g class="carrot-sleep-eyes"><path d="M-10 13q3 2.6 6 0M4 13q3 2.6 6 0" fill="none" stroke="#1c2a3a" stroke-width="1.6" stroke-linecap="round"/></g>
          <g class="carrot-eyes-open">
            <g class="carrot-pupils">
              <circle cx="-7" cy="12.6" r="3.5" fill="#1c2a3a"/><circle cx="-6.1" cy="11.5" r=".95" fill="#fff"/>
              <g class="carrot-eye-right"><circle cx="7" cy="12.6" r="3.5" fill="#1c2a3a"/><circle cx="7.9" cy="11.5" r=".95" fill="#fff"/></g>
            </g>
            <path class="carrot-wink" d="M4 13.2q3-2.6 6 0" fill="none" stroke="#1c2a3a" stroke-width="1.7" stroke-linecap="round"/>
          </g>
          <g class="carrot-blush" fill="#ff9fb2"><ellipse cx="-12.5" cy="19.5" rx="3.8" ry="2.2"/><ellipse cx="12.5" cy="19.5" rx="3.8" ry="2.2"/></g>
          <path d="M-3.6 19.2q3.6 2.7 7.2 0" fill="none" stroke="#1c2a3a" stroke-width="2" stroke-linecap="round"/>
        </g>
      </g>
    </g>
    <path d="M934 170c6-8 18-11 31-11s25 3 31 11Z" fill="#1f2130"/>
    <path d="M944 164c6-2 12-3 18-3" fill="none" stroke="#44475a" stroke-width="1.2" stroke-linecap="round"/>
    <g fill="#5d6280"><circle class="dust" cx="940" cy="164" r="4"/><circle class="dust" cx="990" cy="165" r="3.4"/><circle class="dust" cx="965" cy="158" r="3"/></g>
    <g fill="#f6c07a">
      <g transform="translate(930 96)"><path class="sparkle" d="M0-6 1.5-1.5 6 0 1.5 1.5 0 6-1.5 1.5-6 0-1.5-1.5Z"/></g>
      <g transform="translate(1003 78)"><path class="sparkle" d="M0-5 1.2-1.2 5 0 1.2 1.2 0 5-1.2 1.2-5 0-1.2-1.2Z"/></g>
      <g transform="translate(1008 124)"><path class="sparkle" d="M0-4 1-1 4 0 1 1 0 4-1 1-4 0-1-1Z"/></g>
    </g>
    <g fill="none" stroke="#b7bccf" stroke-width="1.8" stroke-linecap="round" stroke-linejoin="round">
      <g transform="translate(990 84)"><path class="zz-a" d="M0 0h7l-7 8h7"/></g>
      <g transform="translate(1002 68)"><path class="zz-b" d="M0 0h5l-5 6h5"/></g>
    </g>
    <g class="rabbit-position">
      <ellipse class="rabbit-shadow" cx="210" cy="170" rx="34" ry="5" fill="#1f2130"/>
      <g class="rabbit-body">
        <g class="rabbit-tail"><circle cx="187.6" cy="157.6" r="8" fill="#f7f3ea"/><circle cx="186" cy="156" r="3.5" fill="#fff"/></g>
        <ellipse cx="210" cy="152.8" rx="20.8" ry="16.8" fill="#ebe3d3"/>
        <ellipse cx="210" cy="155.2" rx="13.6" ry="11.2" fill="#f7f3ea" opacity=".7"/>
        <ellipse cx="198.8" cy="167.2" rx="9" ry="4" fill="#ebe3d3"/>
        <ellipse cx="221.2" cy="167.2" rx="9" ry="4" fill="#ebe3d3"/>
        <g class="rabbit-satchel"><g transform="translate(26 -2)">
          <path d="M190 124c-8 8-17 15-27 21" fill="none" stroke="#00a979" stroke-width="2.6" stroke-linecap="round"/>
          <rect x="160" y="141" width="11" height="14" rx="1.6" fill="#f7f3ea" stroke="#b7bccf" stroke-width=".8" transform="rotate(-8 165 148)"/>
          <path d="M162 145h6M162 148h6" stroke="#b0b5c9" stroke-width=".8" stroke-linecap="round" transform="rotate(-8 165 148)"/>
          <path d="M171 136l3-9 2 1-2 9Z" fill="#f39a52"/><path d="M174 127l1-2.4 1.4 2.8Z" fill="#1c2a3a"/>
          <rect x="152" y="146" width="27" height="19" rx="5" fill="#00c08b"/>
          <path d="M152 151c0-3 2-5 5-5h17c3 0 5 2 5 5v4c-9 3-18 3-27 0Z" fill="#3ddcb4"/>
          <circle cx="165.5" cy="156.4" r="2" fill="#f39a52"/>
        </g></g>
        <g class="rabbit-front-paw"><ellipse cx="228.4" cy="144.8" rx="5.4" ry="4.5" fill="#f7f3ea"/></g>
        <g class="rabbit-props"><g transform="translate(16 20)">
          <g class="prop prop--build"><g class="prop-hammer"><path d="M168 128l-12-34" stroke="#6272a5" stroke-width="3.6" stroke-linecap="round"/><g transform="translate(155 91) rotate(-20)"><rect x="-11" y="-6" width="22" height="11" rx="2.4" fill="#b7bccf"/><rect x="-11" y="-6" width="5" height="11" rx="1.6" fill="#959bb2"/></g></g></g>
          <g class="prop prop--doodle"><g class="prop-pencil"><path d="M168 128l-14-34" stroke="#f39a52" stroke-width="6" stroke-linecap="round"/><path d="M154 94l-2.6-6.4" stroke="#f7d9b0" stroke-width="6" stroke-linecap="butt"/><path d="M151.4 87.6l-1.6-3.6" stroke="#1c2a3a" stroke-width="3" stroke-linecap="round"/><path d="M168 128l-1.4-3.4" stroke="#f2b6b0" stroke-width="6" stroke-linecap="butt"/></g><path class="prop-scribble" d="M104 82c6-10 11 6 17-3s8 8 14-1 8 6 13 0" fill="none" stroke="#f39a52" stroke-width="2.4" stroke-linecap="round" pathLength="1"/><path class="prop-scribble prop-scribble--b" d="M112 96c5 4 10-4 15 0s9 4 13-1" fill="none" stroke="#f2b6b0" stroke-width="2" stroke-linecap="round" pathLength="1"/></g>
          <g class="prop prop--fiction"><g class="prop-book"><g transform="translate(146 82)"><path d="M0 4c-8-5-17-5-25-2v-17c8-3 17-3 25 2 8-5 17-5 25-2V2C17-1 8-1 0 4Z" fill="#f7f3ea"/><path d="M0-13V4" stroke="#6272a5" stroke-width="1.1"/><path d="M-19-8h13M-19-4h13M6-8h13M6-4h10" stroke="#b7bccf" stroke-width="1.1" stroke-linecap="round"/><g fill="#f6c07a"><path class="hat-star" d="M-14-27l1.4 3.4 3.6 1.4-3.6 1.4-1.4 3.4-1.4-3.4-3.6-1.4 3.6-1.4Z"/><path class="hat-star" d="M15-31l1 2.6 2.6 1-2.6 1-1 2.6-1-2.6-2.6-1 2.6-1Z"/></g></g></g></g>
        </g>
        <g class="rabbit-head">
          <g class="rabbit-ear-back"><ellipse cx="198.8" cy="79.2" rx="8.3" ry="21.6" fill="#f7f3ea" transform="rotate(-12 198.8 79.2)"/><ellipse cx="198.8" cy="80.8" rx="3.7" ry="14.4" fill="#00d9a8" transform="rotate(-12 198.8 80.8)"/></g>
          <g class="rabbit-ear-front"><ellipse cx="221.2" cy="77.6" rx="8.3" ry="22.4" fill="#f7f3ea" transform="rotate(10 221.2 77.6)"/><ellipse cx="221.2" cy="79.2" rx="3.7" ry="15.2" fill="#00d9a8" transform="rotate(10 221.2 79.2)"/></g>
          <circle cx="210" cy="116" r="23.2" fill="#f7f3ea"/>
          <g class="rabbit-eyes-open"><g class="rabbit-eye-blink"><circle cx="201.4" cy="116" r="4.6" fill="#1c2a3a"/><circle cx="218.6" cy="116" r="4.6" fill="#1c2a3a"/><circle cx="202.8" cy="114.4" r="1.4" fill="#fff"/><circle cx="220.1" cy="114.4" r="1.4" fill="#fff"/></g></g>
          <g class="rabbit-eyes-happy"><path d="M197.5 117q3.8 -4.5 7.7 0M214.8 117q3.8 -4.5 7.7 0" fill="none" stroke="#1c2a3a" stroke-width="2.4" stroke-linecap="round"/></g>
          <g fill="#ff9fb2" opacity=".85"><ellipse cx="193.7" cy="124.6" rx="4.8" ry="2.9"/><ellipse cx="226.3" cy="124.6" rx="4.8" ry="2.9"/></g>
          <ellipse class="rabbit-nose" cx="210" cy="121.8" rx="2.1" ry="1.6" fill="#ff8fa8"/>
          <path d="M207.4 124.6q2.6 2.1 5.1 0" fill="none" stroke="#1c2a3a" stroke-width="1.7" stroke-linecap="round"/>
          <g class="rabbit-whiskers" fill="none" stroke="#ccd0de" stroke-width=".9" stroke-linecap="round" opacity=".5"><path d="M230.8 120.8l8-2M230.8 124l8 .6"/></g>
          <g class="prop prop--explore"><g class="prop-scope"><g transform="translate(176 95) rotate(37)"><rect x="-24" y="-6.5" width="22" height="13" rx="3" fill="#f39a52"/><rect x="-4" y="-5" width="26" height="10" rx="2.6" fill="#f6c07a"/><rect x="-10" y="-6.5" width="4" height="13" fill="#f39a52"/><ellipse cx="-24" cy="0" rx="2.6" ry="6.4" fill="#44475a"/><path d="M-24.6-3.4v2.6" stroke="#f6f7fb" stroke-width="1.2" stroke-linecap="round"/></g></g></g><g class="prop prop--build"><path d="M186 101a24 19 0 0 1 48 0Z" fill="#f6c07a"/><path d="M207 82.6v18" stroke="#fff6dc" stroke-width="5" stroke-linecap="round" opacity=".85"/><rect x="181" y="99" width="58" height="6" rx="3" fill="#f39a52"/></g><g class="prop prop--doodle"><ellipse cx="202" cy="95" rx="21" ry="7.4" transform="rotate(-12 202 95)" fill="#ff7a45"/><path d="M200 86.4l2-5" stroke="#ec6634" stroke-width="2.6" stroke-linecap="round"/></g><g class="prop prop--voices"><path d="M186 116c0-28 48-28 48 0" fill="none" stroke="#4c5066" stroke-width="3.4" stroke-linecap="round"/><rect x="180" y="111" width="10" height="15" rx="4" fill="#f39a52"/><rect x="230" y="111" width="10" height="15" rx="4" fill="#f39a52"/><g class="prop-notes" fill="#f6c07a"><path class="note note--a" d="M248 98v-9l7-2v8" fill="none" stroke="#f6c07a" stroke-width="1.4"/><circle class="note note--a" cx="246.6" cy="98" r="2.1"/><circle class="note note--b" cx="258" cy="84" r="2"/><path class="note note--b" d="M259.4 84v-8" stroke="#f6c07a" stroke-width="1.4"/></g></g><g class="prop prop--fiction"><g class="prop-hat"><path d="M196 96l15-30 14 30Z" fill="#6272a5"/><ellipse cx="210.5" cy="96" rx="19" ry="4" fill="#566292"/><path class="hat-star" d="M211 76l1.6 3.6 3.8.4-2.9 2.5.9 3.8-3.4-2-3.4 2 .9-3.8-2.9-2.5 3.8-.4Z" fill="#f6c07a"/></g></g>
        </g>
      </g></g>
      <g transform="translate(250 74)"><g class="rabbit-question-inner"><path d="M-5-8c0-6 10-6 10 0 0 4-5 4.5-5 9" fill="none" stroke="#f6c07a" stroke-width="2.6" stroke-linecap="round"/><circle cx="0" cy="6.5" r="1.7" fill="#f6c07a"/></g></g>
    </g>
    <g transform="translate(946 66)"><path class="heart-a" d="M0 4C-6-3-12 2-7 8L0 14 7 8C12 2 6-3 0 4Z" fill="#f5877e"/></g>
    <g transform="translate(928 84) scale(.7)"><path class="heart-b" d="M0 4C-6-3-12 2-7 8L0 14 7 8C12 2 6-3 0 4Z" fill="#f39a52"/></g>
  </g>
  <g class="news-flag" transform="translate(1014 169)"><path d="M0 0v-48" stroke="#6272a5" stroke-width="2.2" stroke-linecap="round"/><g class="news-flag__cloth"><path d="M1-48h31l-6 8 6 8H1Z" fill="#f39a52"/><text x="15" y="-36.6" text-anchor="middle" font-family="ui-monospace,Menlo,monospace" font-size="8.6" font-weight="800" fill="#282a36">NEW</text></g></g>
  <g class="tap-pop" transform="translate(965 46)"><g fill="#ff8f8f"><path class="tap-heart tap-heart--a" d="M-26 14c-6-5-6-10-3-11.4 1.6-.6 2.6.4 3 1.4.4-1 1.4-2 3-1.4 3 1.4 3 6.4-3 11.4Z"/><path class="tap-heart tap-heart--b" d="M26 8c-6-5-6-10-3-11.4 1.6-.6 2.6.4 3 1.4.4-1 1.4-2 3-1.4 3 1.4 3 6.4-3 11.4Z"/></g><g class="tap-bubble"><rect x="-42" y="-24" width="84" height="21" rx="10.5" fill="#f7f3ea"/><path d="M-5-3.4l5 6 5-6Z" fill="#f7f3ea"/><text class="tap-text" x="0" y="-10" text-anchor="middle" font-size="10.5" font-weight="700" fill="#1c2a3a"> </text></g></g>
  <rect class="carrot-hit" x="932" y="58" width="66" height="114" rx="12" fill="transparent" role="button" tabindex="0" aria-label="당근 쓰다듬기"/>
</svg>